<svg xmlns="http://www.w3.org/2000/svg" viewBox="0 0 216.32 170.83"><defs><style>.cls-1{fill:#1d1d1b;}.cls-2,.cls-3{fill:none;}.cls-3{stroke:#1d1d1b;stroke-miterlimit:10;stroke-width:0.75px;}</style></defs><g id="Layer_1" data-name="Layer 1"><path class="cls-1" d="M204.78,91.84,153.9,67.59,138.32,74.9l-68.14,6-3.66,65.52L117,143.6l2.78-1.52-1.19,2.15-15.51,8L118.6,168.4l34.74-4.21,5.72,7-45.63-2.06a4.33,4.33,0,0,0-1.59.31l-18.66-2.09a17,17,0,0,0-7.26.64c-4.51,1.22-4.82,5.93-4.82,5.93s3,7.16,12.19,7.16c7.52-.9,12.67-1.7,12.67-1.7a11.63,11.63,0,0,0,12.35,2.28l43.19-7.32,33,41.55,2.3-.15L155.65,164l19.48-2.31,24.48,53.9,1.85-.13-13.93-31.22,23.58-.9L214,157.06l2.92-.48Zm-91.25,78.78c6.36.22,8.38,4.78,8.38,4.78S112,169.67,106.59,173C106.59,173,107.18,170.42,113.53,170.62Zm-28.77-1.05a16.88,16.88,0,0,1,6.78-1.38,8.69,8.69,0,0,1,5.67,2c3,2.28,2,4.29,2,4.29s-1.48-3.44-7.73-4.4c-6.1-.93-8.77,1.42-8.9,1.54A3.87,3.87,0,0,1,84.76,169.57Zm-2.66,4.34c2.39-2.86,4.4-2.38,4.4-2.38a5,5,0,0,0-1.16,5.56C83.59,176.72,82.1,173.91,82.1,173.91Zm12.14,2.18s-.42,2.38-2.33,2.7a9.29,9.29,0,0,1-4.13-.53c-3.77-4.35.47-6.95.47-6.95a25.82,25.82,0,0,1,5.67.43C94.56,173.11,94.24,176.09,94.24,176.09Zm.79-3.93a6.77,6.77,0,0,1,3.24,3,7.32,7.32,0,0,1-3.71,3.19C95.83,175.61,95.46,174.44,95,172.16Zm1.07,7.32c3.44-1.7,4.61-4.77,4.19-6.68a7.29,7.29,0,0,0-2-3.34l9.8,1c-1.37.31-4.4,3.71-4.13,4.93a12,12,0,0,0,1.17,2.75Zm12.35.21c-2.82-1.06-3.76-4.29-3.76-4.29a14.58,14.58,0,0,1,4.23-2.12S106.54,176.4,108.45,179.69Zm8.16.48a6.28,6.28,0,0,1-3.81.63,4.14,4.14,0,0,1-3.51-3c-.63-1.7,1.65-4.93,1.65-4.93a19.17,19.17,0,0,1,7.42,2.06C119,178.15,117.62,179.69,116.61,180.17Zm1.32.47c1.81-1.91,1.54-5.09,1.54-5.09l2.65,1.6S120.05,180.27,117.93,180.64Zm42.52-7.59-39,6.56a5.47,5.47,0,0,0,2.22-3.06c-.83-3.5-4.29-5.49-4.29-5.49l40.87,1.58Zm-92-28.34L71.93,83l61.3-5.72-3.35,1.59L81.71,84l16.14,5.81-24.57-.24-1.67,44.55-.72,7.53,18.85.39L78.92,130.4l-1,1.43,7.31,8.26L73,139.86l2-48.22,26.67-.28V89.42l-12.73-4.5,36.36-4-42.83,20-7.63,21,22,21.73Zm140.46,37.2-22.16.75-9.44-21.2,34.46-4Zm-90.11-14.73-13.46-14.73,14.52-7.58,3-4.4,6.26-3.29,6.51.11-10.76,18.49,25.65,1.49-1.32-11.34h-1.64l.64,9.06-20.36-1.22L137,137.34l33.5.26,3.34-23.53-1.7.06L168.71,136l-36-.43,14.2-7.47,13.57-.43,3.07-17-1.9-.26-2.92,14.94-7.68-3.6,1.18-37.6L124.8,89.85l.24,7.79,20,5.57-.72-1.83-17.76-4.89,0-5,23.61-5.37-1.51,34.47-24.73-11.41,2.39-1.95,17.41,2a1.81,1.81,0,0,0,.95-2l-16.33-1.39-1.75-.75L122,108.37l-8.47-15.7,45.91-17.25.08-1.07L111.76,91.6l-.24.8,8.94,17.13L117,112.15l-8.47-18.4-1.08.51L116,112.83l-5.29,3.81-15.14.64-2.39-14.11,13.56-2.58,0-2.16-15.82,3,2.5,16-14.22.72,11.36,6.47,5.68,4,.45.68,25.44-19,26.79,12.17-27.27-4.78L99.76,129.29l14.78,10.49,9.14-9.22H120.9l-6.44,6.59-4.29-2.54-6.76-5.09,16.7-9.46,33.79,4.61,4,1.91-50.48,1.83-.06,1.24,37.85-1.38-28.73,14.64-17,.53L76.38,121.6,83.91,102,154.4,68.92l49.19,24.17,11.34,62Zm-10.23-49-12.14,9-6-3-6.26-4.23Z" transform="translate(-34.77 -56.32)"/><path class="cls-2" d="M85.34,177.09c-1.75-.37-3.24-3.18-3.24-3.18,2.39-2.86,4.4-2.38,4.4-2.38A5,5,0,0,0,85.34,177.09Z" transform="translate(-34.77 -56.32)"/><path class="cls-2" d="M93.92,171.74c.64,1.37.32,4.35.32,4.35s-.42,2.38-2.33,2.7a9.29,9.29,0,0,1-4.13-.53c-3.77-4.35.47-6.95.47-6.95A25.82,25.82,0,0,1,93.92,171.74Z" transform="translate(-34.77 -56.32)"/><path class="cls-2" d="M94.56,178.37c1.27-2.76.9-3.93.47-6.21a6.77,6.77,0,0,1,3.24,3A7.32,7.32,0,0,1,94.56,178.37Z" transform="translate(-34.77 -56.32)"/><path class="cls-2" d="M97.21,170.2c3,2.28,2,4.29,2,4.29s-1.48-3.44-7.73-4.4c-6.1-.93-8.77,1.42-8.9,1.54a3.87,3.87,0,0,1,2.17-2.06,16.88,16.88,0,0,1,6.78-1.38A8.69,8.69,0,0,1,97.21,170.2Z" transform="translate(-34.77 -56.32)"/><path class="cls-2" d="M108.92,173.28s-2.38,3.12-.47,6.41c-2.82-1.06-3.76-4.29-3.76-4.29A14.58,14.58,0,0,1,108.92,173.28Z" transform="translate(-34.77 -56.32)"/><path class="cls-2" d="M103.94,175.35a12,12,0,0,0,1.17,2.75l-9,1.38c3.44-1.7,4.61-4.77,4.19-6.68a7.29,7.29,0,0,0-2-3.34l9.8,1C106.7,170.73,103.67,174.13,103.94,175.35Z" transform="translate(-34.77 -56.32)"/><polygon class="cls-2" points="49.4 63.59 73.78 61.84 61.64 70.84 55.65 67.82 49.4 63.59"/><path class="cls-2" d="M116.61,180.17a6.28,6.28,0,0,1-3.81.63,4.14,4.14,0,0,1-3.51-3c-.63-1.7,1.65-4.93,1.65-4.93a19.17,19.17,0,0,1,7.42,2.06C119,178.15,117.62,179.69,116.61,180.17Z" transform="translate(-34.77 -56.32)"/><path class="cls-2" d="M113.53,170.62c6.36.22,8.38,4.78,8.38,4.78S112,169.67,106.59,173C106.59,173,107.18,170.42,113.53,170.62Z" transform="translate(-34.77 -56.32)"/><path class="cls-2" d="M122.12,177.15s-2.07,3.12-4.19,3.49c1.81-1.91,1.54-5.09,1.54-5.09Z" transform="translate(-34.77 -56.32)"/><polygon class="cls-2" points="62.07 87.33 33.66 88.39 37.15 26.69 98.45 20.97 95.11 22.56 46.93 27.73 63.07 33.53 38.51 33.3 36.84 77.84 36.12 85.37 54.96 85.77 44.15 74.08 43.12 75.51 50.43 83.78 38.19 83.54 40.17 35.32 66.85 35.05 66.85 33.1 54.12 28.6 90.47 24.57 47.65 44.61 40.02 65.6 62.07 87.33"/><path class="cls-2" d="M160.26,172.64l.19.41-39,6.56a5.47,5.47,0,0,0,2.22-3.06c-.83-3.5-4.29-5.49-4.29-5.49Z" transform="translate(-34.77 -56.32)"/><polygon class="cls-2" points="164.31 110.17 162.77 115.37 160.28 115.47 159.49 111.08 164.31 110.17"/><path class="cls-2" d="M189.06,165.64l3.61,9.71,7.63-.22,3.23-13.2Zm9.71,7.42-4.94.11-1.43-6.79,8.64-2.27Z" transform="translate(-34.77 -56.32)"/><path class="cls-2" d="M183.44,163.84l6.1,14.68,14.05-.74L206,159.71ZM200.57,176l-8.33.85-4.18-11.5,16.11-4.14Z" transform="translate(-34.77 -56.32)"/><path class="cls-2" d="M177.29,161.46l9.44,21.2,22.16-.75,2.86-24.48Zm27.09,17.43-15.58,1.28-6.89-18.08,25.81-3.49Z" transform="translate(-34.77 -56.32)"/><path class="cls-2" d="M203.59,93.09,154.4,68.92,83.91,102,76.38,121.6l23.11,21.84,17-.53,28.73-14.64-37.85,1.38.06-1.24,50.48-1.83-4-1.91-33.79-4.61-16.7,9.46,6.76,5.09,4.29,2.54,6.44-6.59h2.78l-9.14,9.22L99.76,129.29l21.86-11.62,27.27,4.78L122.1,110.28l-25.44,19-.45-.68-5.68-4-11.36-6.47,14.22-.72-2.5-16,15.82-3,0,2.16-13.56,2.58,2.39,14.11,15.14-.64,5.29-3.81-8.59-18.57,1.08-.51,8.47,18.4,3.49-2.62L111.52,92.4l.24-.8,47.78-17.25-.08,1.07L113.55,92.67l8.47,15.7,4.57-3.29,1.75.75,16.33,1.39a1.81,1.81,0,0,1-.95,2l-17.41-2-2.39,1.95,24.73,11.41,1.51-34.47-23.61,5.37,0,5,17.76,4.89.72,1.83-20-5.57-.24-7.79,27.39-5.69L151,121.76l7.68,3.6,2.92-14.94,1.9.26-3.07,17-13.57.43-14.2,7.47,36,.43,3.39-21.89,1.7-.06-3.34,23.53-33.5-.26-9.17,16.43L148.15,155l-.64-9.06h1.64l1.32,11.34-25.65-1.49,10.76-18.49-6.51-.11-6.26,3.29-3,4.4-14.52,7.58,13.46,14.73,96.15-12.09ZM207,150.75l-2.92-10.33L202.9,143l-1.49.11-.1-.43,3-6.31,5.09,17.76L188.9,141.42l.32-30.31,1.44,0-.17,29.73ZM208.41,131l-4.3-4.45-3.71-4.61,1.33.1,3.82,4.56L197.7,105l4.14,32.86-1.33.26-.32-1.11-2.06-19.77-2.69-21.16ZM168.5,90.12l-2.7,18L154.24,78.56l43.62,12.78,1.22.15-19.82,14.69-1.49-1.12,17.87-12.93L157,81.32,165.21,100l2.7-14.9,2.13,5.2,1.82,5.88L181.17,124l5.45,16,1.75,4.19-.84.53-1,.06-2.6-8ZM155.65,161s-.61.26-.75-.58l-1.64-14.53,1.27-.16,1.59,13.36,31.72-11.85-41.34-7.08.24-2.06,46.67,8.43Z" transform="translate(-34.77 -56.32)"/><polygon class="cls-2" points="164.31 110.17 162.77 115.37 160.28 115.47 159.49 111.08 164.31 110.17"/><path class="cls-2" d="M189.06,165.64l3.61,9.71,7.63-.22,3.23-13.2Zm9.71,7.42-4.94.11-1.43-6.79,8.64-2.27Z" transform="translate(-34.77 -56.32)"/><path class="cls-2" d="M183.44,163.84l6.1,14.68,14.05-.74L206,159.71ZM200.57,176l-8.33.85-4.18-11.5,16.11-4.14Z" transform="translate(-34.77 -56.32)"/><path class="cls-2" d="M177.29,161.46l9.44,21.2,22.16-.75,2.86-24.48Zm27.09,17.43-15.58,1.28-6.89-18.08,25.81-3.49Z" transform="translate(-34.77 -56.32)"/><path class="cls-2" d="M123.68,176.55c-.83-3.5-4.29-5.49-4.29-5.49l40.87,1.58.19.41-39,6.56A5.47,5.47,0,0,0,123.68,176.55Z" transform="translate(-34.77 -56.32)"/><path class="cls-2" d="M103.94,175.35a12,12,0,0,0,1.17,2.75l-9,1.38c3.44-1.7,4.61-4.77,4.19-6.68a7.29,7.29,0,0,0-2-3.34l9.8,1C106.7,170.73,103.67,174.13,103.94,175.35Z" transform="translate(-34.77 -56.32)"/><path class="cls-2" d="M98.27,175.18a7.32,7.32,0,0,1-3.71,3.19c1.27-2.76.9-3.93.47-6.21A6.77,6.77,0,0,1,98.27,175.18Z" transform="translate(-34.77 -56.32)"/><path class="cls-2" d="M85.34,177.09c-1.75-.37-3.24-3.18-3.24-3.18,2.39-2.86,4.4-2.38,4.4-2.38A5,5,0,0,0,85.34,177.09Z" transform="translate(-34.77 -56.32)"/><path class="cls-2" d="M108.45,179.69c-2.82-1.06-3.76-4.29-3.76-4.29a14.58,14.58,0,0,1,4.23-2.12S106.54,176.4,108.45,179.69Z" transform="translate(-34.77 -56.32)"/><path class="cls-2" d="M94.24,176.09s-.42,2.38-2.33,2.7a9.29,9.29,0,0,1-4.13-.53c-3.77-4.35.47-6.95.47-6.95a25.82,25.82,0,0,1,5.67.43C94.56,173.11,94.24,176.09,94.24,176.09Z" transform="translate(-34.77 -56.32)"/><path class="cls-2" d="M99.22,174.49s-1.48-3.44-7.73-4.4c-6.1-.93-8.77,1.42-8.9,1.54a3.87,3.87,0,0,1,2.17-2.06,16.88,16.88,0,0,1,6.78-1.38,8.69,8.69,0,0,1,5.67,2C100.18,172.48,99.22,174.49,99.22,174.49Z" transform="translate(-34.77 -56.32)"/><path class="cls-2" d="M121.91,175.4S112,169.67,106.59,173c0,0,.59-2.54,6.94-2.34S121.91,175.4,121.91,175.4Z" transform="translate(-34.77 -56.32)"/><path class="cls-2" d="M122.12,177.15s-2.07,3.12-4.19,3.49c1.81-1.91,1.54-5.09,1.54-5.09Z" transform="translate(-34.77 -56.32)"/><path class="cls-2" d="M116.61,180.17a6.28,6.28,0,0,1-3.81.63,4.14,4.14,0,0,1-3.51-3c-.63-1.7,1.65-4.93,1.65-4.93a19.17,19.17,0,0,1,7.42,2.06C119,178.15,117.62,179.69,116.61,180.17Z" transform="translate(-34.77 -56.32)"/><path class="cls-1" d="M113,174.81a1.91,1.91,0,0,1,2.12,1.28,2.21,2.21,0,0,1-1.06,2.43s-1.11.59-1.54-.05A2.58,2.58,0,0,1,112,176C112.32,174.81,113,174.81,113,174.81Z" transform="translate(-34.77 -56.32)"/><path class="cls-1" d="M90.58,172.53s1.12.59,1.12,1.49.1,1.69-.48,2.17-2.49.37-2.6-1S89.15,172.27,90.58,172.53Z" transform="translate(-34.77 -56.32)"/><path class="cls-1" d="M181.91,162.09l6.89,18.08,15.58-1.28,3.34-20.29Zm21.68,15.69-14.05.74-6.1-14.68L206,159.71Z" transform="translate(-34.77 -56.32)"/><polygon class="cls-2" points="164.31 110.17 162.77 115.37 160.28 115.47 159.49 111.08 164.31 110.17"/><path class="cls-2" d="M189.06,165.64l3.61,9.71,7.63-.22,3.23-13.2Zm9.71,7.42-4.94.11-1.43-6.79,8.64-2.27Z" transform="translate(-34.77 -56.32)"/><path class="cls-2" d="M183.44,163.84l6.1,14.68,14.05-.74L206,159.71ZM200.57,176l-8.33.85-4.18-11.5,16.11-4.14Z" transform="translate(-34.77 -56.32)"/><polygon class="cls-2" points="164.31 110.17 162.77 115.37 160.28 115.47 159.49 111.08 164.31 110.17"/><path class="cls-2" d="M189.06,165.64l3.61,9.71,7.63-.22,3.23-13.2Zm9.71,7.42-4.94.11-1.43-6.79,8.64-2.27Z" transform="translate(-34.77 -56.32)"/><path class="cls-2" d="M183.44,163.84l6.1,14.68,14.05-.74L206,159.71ZM200.57,176l-8.33.85-4.18-11.5,16.11-4.14Z" transform="translate(-34.77 -56.32)"/><path class="cls-1" d="M188.06,165.33l4.18,11.5,8.33-.85,3.6-14.79Zm12.24,9.8-7.63.22-3.61-9.71,14.47-3.71Z" transform="translate(-34.77 -56.32)"/><polygon class="cls-2" points="164.31 110.17 162.77 115.37 160.28 115.47 159.49 111.08 164.31 110.17"/><path class="cls-2" d="M189.06,165.64l3.61,9.71,7.63-.22,3.23-13.2Zm9.71,7.42-4.94.11-1.43-6.79,8.64-2.27Z" transform="translate(-34.77 -56.32)"/><polygon class="cls-2" points="164.31 110.17 162.77 115.37 160.28 115.47 159.49 111.08 164.31 110.17"/><path class="cls-2" d="M189.06,165.64l3.61,9.71,7.63-.22,3.23-13.2Zm9.71,7.42-4.94.11-1.43-6.79,8.64-2.27Z" transform="translate(-34.77 -56.32)"/><path class="cls-1" d="M192.4,166.38l1.43,6.79,4.94-.11,2.27-8.95Zm5.15,5.31-2.5.1-.79-4.4,4.82-.9Z" transform="translate(-34.77 -56.32)"/><polygon class="cls-2" points="164.31 110.17 162.77 115.37 160.28 115.47 159.49 111.08 164.31 110.17"/><polygon class="cls-2" points="164.31 110.17 162.77 115.37 160.28 115.47 159.49 111.08 164.31 110.17"/><path class="cls-2" d="M203.59,93.09,154.4,68.92,83.91,102,76.38,121.6l23.11,21.84,17-.53,28.73-14.64-37.85,1.38.06-1.24,50.48-1.83-4-1.91-33.79-4.61-16.7,9.46,6.76,5.09,4.29,2.54,6.44-6.59h2.78l-9.14,9.22L99.76,129.29l21.86-11.62,27.27,4.78L122.1,110.28l-25.44,19-.45-.68-5.68-4-11.36-6.47,14.22-.72-2.5-16,15.82-3,0,2.16-13.56,2.58,2.39,14.11,15.14-.64,5.29-3.81-8.59-18.57,1.08-.51,8.47,18.4,3.49-2.62L111.52,92.4l.24-.8,47.78-17.25-.08,1.07L113.55,92.67l8.47,15.7,4.57-3.29,1.75.75,16.33,1.39a1.81,1.81,0,0,1-.95,2l-17.41-2-2.39,1.95,24.73,11.41,1.51-34.47-23.61,5.37,0,5,17.76,4.89.72,1.83-20-5.57-.24-7.79,27.39-5.69L151,121.76l7.68,3.6,2.92-14.94,1.9.26-3.07,17-13.57.43-14.2,7.47,36,.43,3.39-21.89,1.7-.06-3.34,23.53-33.5-.26-9.17,16.43L148.15,155l-.64-9.06h1.64l1.32,11.34-25.65-1.49,10.76-18.49-6.51-.11-6.26,3.29-3,4.4-14.52,7.58,13.46,14.73,96.15-12.09ZM207,150.75l-2.92-10.33L202.9,143l-1.49.11-.1-.43,3-6.31,5.09,17.76L188.9,141.42l.32-30.31,1.44,0-.17,29.73ZM208.41,131l-4.3-4.45-3.71-4.61,1.33.1,3.82,4.56L197.7,105l4.14,32.86-1.33.26-.32-1.11-2.06-19.77-2.69-21.16ZM168.5,90.12l-2.7,18L154.24,78.56l43.62,12.78,1.22.15-19.82,14.69-1.49-1.12,17.87-12.93L157,81.32,165.21,100l2.7-14.9,2.13,5.2,1.82,5.88L181.17,124l5.45,16,1.75,4.19-.84.53-1,.06-2.6-8ZM155.65,161s-.61.26-.75-.58l-1.64-14.53,1.27-.16,1.59,13.36,31.72-11.85-41.34-7.08.24-2.06,46.67,8.43Z" transform="translate(-34.77 -56.32)"/><polygon class="cls-2" points="36.84 77.84 36.12 85.37 54.96 85.77 44.15 74.08 43.12 75.51 50.43 83.78 38.19 83.54 40.17 35.32 66.85 35.05 66.85 33.1 54.12 28.6 90.47 24.57 47.65 44.61 40.02 65.6 62.07 87.33 33.66 88.39 37.15 26.69 98.45 20.97 95.11 22.56 46.93 27.73 63.07 33.53 38.51 33.3 36.84 77.84"/><polygon class="cls-2" points="73.78 61.84 61.64 70.84 55.65 67.82 49.4 63.59 73.78 61.84"/><polygon class="cls-1" points="88.91 89.19 89.78 91.65 77.86 97.45 82.87 106.2 107.91 105.09 107.99 106.68 82.23 108.03 76.19 96.66 82.71 93.48 88.91 89.19"/><path class="cls-1" d="M193.41,146.54,155.65,161s-.61.26-.75-.58l-1.64-14.53,1.27-.16,1.59,13.36,31.72-11.85-41.34-7.08.24-2.06Z" transform="translate(-34.77 -56.32)"/><polygon class="cls-1" points="166.96 65.7 170.77 70.26 162.93 48.69 167.06 81.55 165.74 81.82 165.42 80.7 163.35 60.93 160.66 39.77 173.64 74.66 169.34 70.21 165.63 65.6 166.96 65.7"/><polygon class="cls-1" points="174.64 97.77 154.13 85.1 154.45 54.79 155.88 54.84 155.72 84.57 172.2 94.43 169.29 84.1 168.13 86.64 166.64 86.75 166.53 86.32 169.55 80.02 174.64 97.77"/><polygon class="cls-1" points="151.85 83.73 153.6 87.91 152.75 88.44 151.8 88.5 149.2 80.55 133.72 33.8 131.02 51.82 119.47 22.24 163.09 35.02 164.31 35.17 144.49 49.86 143 48.75 160.86 35.81 122.22 25 130.44 43.71 133.14 28.82 135.26 34.01 137.09 39.89 146.39 67.72 151.85 83.73"/></g><g id="Layer_2" data-name="Layer 2"><rect class="cls-3" x="21.92" y="0.38" width="170.08" height="170.08"/></g><g id="Layer_3" data-name="Layer 3"><path class="cls-1" d="M35.67,59.75H48a3.68,3.68,0,0,1,2.52.73,2.77,2.77,0,0,1,1,2.13A2.87,2.87,0,0,1,50.18,65a5.12,5.12,0,0,1-2,.78,4.8,4.8,0,0,1,2,.48,2.47,2.47,0,0,1,1.36,2.27c0,2-1.76,3.21-4.48,3.21H35.67Zm8.48,5c.84,0,1.15-.24,1.15-.9s-.31-.88-1.15-.88H41.84V64.7Zm.3,4.18c.76,0,1.06-.26,1.06-.89s-.28-.88-1.06-.88H41.84v1.77Z" transform="translate(-34.77 -56.32)"/><path class="cls-1" d="M44.81,89.76l-3-3.8v3.8H35.68v-12H47.26a4.46,4.46,0,0,1,3,.8,3.38,3.38,0,0,1,1.3,2.7,3.34,3.34,0,0,1-1.31,2.66,4.33,4.33,0,0,1-2.45.87l4.14,5Zm-1.06-6.32a2.13,2.13,0,0,0,1.17-.21,1.27,1.27,0,0,0,.56-1.14c0-.81-.38-1.13-1.37-1.13H41.86v2.48Z" transform="translate(-34.77 -56.32)"/><path class="cls-1" d="M46,107.77l-.44-1.55h-4l-.43,1.55H34.77l3.84-12h9.78l3.78,12Zm-2.4-8.63-1.3,3.8H44.8Z" transform="translate(-34.77 -56.32)"/><path class="cls-1" d="M40.35,125.79v-12h6.17v12Z" transform="translate(-34.77 -56.32)"/><path class="cls-1" d="M45.72,143.77l-4.18-5.38v5.38H35.71v-12H41.9l3.43,5v-5h5.83v12Z" transform="translate(-34.77 -56.32)"/><path class="cls-1" d="M36.64,158.14a40.73,40.73,0,0,0,6.71.58c.54,0,.83-.18.83-.54s-.2-.42-.84-.42h-1c-.49,0-1.57-.07-2.27-.14a4,4,0,0,1-3-1.37,3.63,3.63,0,0,1-.71-2.3,3.76,3.76,0,0,1,1.43-3.17c1.06-.79,3.18-1.24,6-1.24a33.24,33.24,0,0,1,6.34.59v3.53a44.65,44.65,0,0,0-4.84-.41H43.86c-.83,0-1.15.16-1.15.54s.25.48.66.48l2.16,0a10,10,0,0,1,3.1.45,3.13,3.13,0,0,1,1.89,3A3.9,3.9,0,0,1,48.65,161c-1.26.79-2.6,1-5.35,1a32.82,32.82,0,0,1-6.66-.61Z" transform="translate(-34.77 -56.32)"/><path class="cls-1" d="M50.54,179.62a27.94,27.94,0,0,1-5.26.42c-3.39,0-5.13-.38-6.54-1.41a6,6,0,0,1-2.3-4.95,5.81,5.81,0,0,1,2.2-4.75,9.42,9.42,0,0,1,5.61-1.41,43.53,43.53,0,0,1,6.5.56v4.7a28.14,28.14,0,0,0-4.61-.45c-2.31,0-3.21.52-3.21,1.87S43.8,176,46.23,176a17.87,17.87,0,0,0,4.31-.49Z" transform="translate(-34.77 -56.32)"/><path class="cls-1" d="M46,197.8l-.44-1.55h-4l-.43,1.55H34.77l3.84-12h9.78l3.78,12Zm-2.4-8.63-1.3,3.8H44.8Z" transform="translate(-34.77 -56.32)"/><path class="cls-1" d="M45.72,215.8l-4.18-5.38v5.38H35.71v-12H41.9l3.43,5v-5h5.83v12Z" transform="translate(-34.77 -56.32)"/><path class="cls-1" d="M245.19,187.72v-6.17l-2.11,6.17h-3.36l-2.11-6v6h-5.83v-12h7.74l1.87,5.84,1.89-5.84h7.81v12Z" transform="translate(-34.77 -56.32)"/><path class="cls-1" d="M244,205.71l-.44-1.54h-4l-.43,1.54h-6.31l3.84-12h9.78l3.78,12Zm-2.4-8.62-1.3,3.8h2.54Z" transform="translate(-34.77 -56.32)"/><path class="cls-1" d="M248.82,223.1a25.72,25.72,0,0,1-6.49.88,11.92,11.92,0,0,1-5.92-1.24c-1.69-1-2.56-2.65-2.56-5.06a5.46,5.46,0,0,1,2.22-4.76c1.44-1,3.24-1.46,5.92-1.46a29,29,0,0,1,6.63.74v4.18a27.15,27.15,0,0,0-5-.5,5.16,5.16,0,0,0-2.92.61,2.31,2.31,0,0,0-.95,1.94c0,1.48,1,2.4,2.7,2.4l.73,0v-3.11h5.59Z" transform="translate(-34.77 -56.32)"/></g></svg>